STARTFONT 2.3
FONT -FontForge-Zen Tokyo Zoo-Book-R-Normal--16-160-72-72-P-75-ISO10646-1
SIZE 16 72 72  2
FONTBOUNDINGBOX 21 23 -2 -4
COMMENT "Generated by fontforge, http://fontforge.sourceforge.net"
COMMENT "Copyright 2021 The Zen Tokyo Zoo Project Authors (https://github.com/googlefonts/zen-tokyo-zoo)"
STARTPROPERTIES 40
FOUNDRY "FontForge"
FAMILY_NAME "Zen Tokyo Zoo"
WEIGHT_NAME "Book"
SLANT "R"
SETWIDTH_NAME "Normal"
ADD_STYLE_NAME ""
PIXEL_SIZE 16
POINT_SIZE 160
RESOLUTION_X 72
RESOLUTION_Y 72
SPACING "P"
AVERAGE_WIDTH 75
CHARSET_REGISTRY "ISO10646"
CHARSET_ENCODING "1"
FONTNAME_REGISTRY ""
CHARSET_COLLECTIONS "ISO10646-1"
BITS_PER_PIXEL 2
FONT_NAME "ZenTokyoZoo-Regular"
FACE_NAME "Zen Tokyo Zoo Regular"
COPYRIGHT "Copyright 2021 The Zen Tokyo Zoo Project Authors (https://github.com/googlefonts/zen-tokyo-zoo)"
FONT_VERSION "1.002; ttfautohint (v1.8.3)"
FONT_ASCENT 13
FONT_DESCENT 3
UNDERLINE_POSITION -2
UNDERLINE_THICKNESS 1
X_HEIGHT 6
CAP_HEIGHT 13
RAW_ASCENT 800
RAW_DESCENT 200
NORM_SPACE 4
RELATIVE_WEIGHT 40
RELATIVE_SETWIDTH 50
SUPERSCRIPT_X 0
SUPERSCRIPT_Y 5
SUPERSCRIPT_SIZE 9
SUBSCRIPT_X 0
SUBSCRIPT_Y 1
SUBSCRIPT_SIZE 9
AVG_LOWERCASE_WIDTH 66
AVG_UPPERCASE_WIDTH 121
ENDPROPERTIES
CHARS 338
STARTCHAR CR
ENCODING 13
SWIDTH 600 0
DWIDTH 10 0
BBX 1 1 0 0
BITMAP
00
ENDCHAR
STARTCHAR space
ENCODING 32
SWIDTH 280 0
DWIDTH 4 0
BBX 1 1 0 0
BITMAP
00
ENDCHAR
STARTCHAR exclam
ENCODING 33
SWIDTH 196 0
DWIDTH 3 0
BBX 3 7 0 0
BITMAP
54
54
54
54
54
10
54
ENDCHAR
STARTCHAR quotedbl
ENCODING 34
SWIDTH 302 0
DWIDTH 5 0
BBX 5 2 0 5
BITMAP
5140
5140
ENDCHAR
STARTCHAR numbersign
ENCODING 35
SWIDTH 513 0
DWIDTH 8 0
BBX 7 7 1 0
BITMAP
1450
55A4
55A4
0140
AA50
A950
5140
ENDCHAR
STARTCHAR dollar
ENCODING 36
SWIDTH 379 0
DWIDTH 6 0
BBX 6 8 0 -1
BITMAP
1540
5550
5500
2540
0650
5550
2580
0500
ENDCHAR
STARTCHAR percent
ENCODING 37
SWIDTH 493 0
DWIDTH 8 0
BBX 8 7 0 0
BITMAP
6914
5550
2950
01A4
0595
1595
2468
ENDCHAR
STARTCHAR ampersand
ENCODING 38
SWIDTH 487 0
DWIDTH 8 0
BBX 6 7 1 0
BITMAP
1640
1540
2540
2940
9A60
6580
5550
ENDCHAR
STARTCHAR quotesingle
ENCODING 39
SWIDTH 146 0
DWIDTH 2 0
BBX 2 2 0 5
BITMAP
50
50
ENDCHAR
STARTCHAR parenleft
ENCODING 40
SWIDTH 210 0
DWIDTH 3 0
BBX 3 8 0 0
BITMAP
28
14
54
50
50
54
14
28
ENDCHAR
STARTCHAR parenright
ENCODING 41
SWIDTH 210 0
DWIDTH 3 0
BBX 3 8 0 0
BITMAP
50
14
14
14
14
14
14
50
ENDCHAR
STARTCHAR asterisk
ENCODING 42
SWIDTH 358 0
DWIDTH 6 0
BBX 4 4 1 3
BITMAP
14
45
45
55
ENDCHAR
STARTCHAR plus
ENCODING 43
SWIDTH 394 0
DWIDTH 6 0
BBX 6 5 0 1
BITMAP
0500
5550
0500
5550
0500
ENDCHAR
STARTCHAR comma
ENCODING 44
SWIDTH 216 0
DWIDTH 3 0
BBX 3 2 0 -1
BITMAP
14
54
ENDCHAR
STARTCHAR hyphen
ENCODING 45
SWIDTH 326 0
DWIDTH 5 0
BBX 4 2 1 2
BITMAP
A9
A9
ENDCHAR
STARTCHAR period
ENCODING 46
SWIDTH 176 0
DWIDTH 3 0
BBX 3 1 0 0
BITMAP
54
ENDCHAR
STARTCHAR slash
ENCODING 47
SWIDTH 298 0
DWIDTH 5 0
BBX 4 7 0 0
BITMAP
05
0A
05
15
28
14
54
ENDCHAR
STARTCHAR zero
ENCODING 48
SWIDTH 306 0
DWIDTH 5 0
BBX 5 7 0 0
BITMAP
2A00
5540
5140
5140
5140
5940
2500
ENDCHAR
STARTCHAR one
ENCODING 49
SWIDTH 306 0
DWIDTH 5 0
BBX 3 7 1 0
BITMAP
94
94
14
14
14
14
14
ENDCHAR
STARTCHAR two
ENCODING 50
SWIDTH 299 0
DWIDTH 5 0
BBX 5 7 0 0
BITMAP
2A00
5940
0900
1500
1400
6A00
6A00
ENDCHAR
STARTCHAR three
ENCODING 51
SWIDTH 324 0
DWIDTH 5 0
BBX 5 7 0 0
BITMAP
2A40
4540
0500
0040
0540
5940
2600
ENDCHAR
STARTCHAR four
ENCODING 52
SWIDTH 339 0
DWIDTH 5 0
BBX 5 7 0 0
BITMAP
0900
1500
2400
1540
6540
6540
0140
ENDCHAR
STARTCHAR five
ENCODING 53
SWIDTH 363 0
DWIDTH 6 0
BBX 4 7 1 0
BITMAP
69
69
50
55
55
55
55
ENDCHAR
STARTCHAR six
ENCODING 54
SWIDTH 306 0
DWIDTH 5 0
BBX 5 7 0 0
BITMAP
2A00
5540
5000
5500
5540
5940
2600
ENDCHAR
STARTCHAR seven
ENCODING 55
SWIDTH 298 0
DWIDTH 5 0
BBX 4 7 0 0
BITMAP
6A
6A
05
05
05
15
14
ENDCHAR
STARTCHAR eight
ENCODING 56
SWIDTH 306 0
DWIDTH 5 0
BBX 5 7 0 0
BITMAP
2A00
5540
5540
2900
5640
5940
2600
ENDCHAR
STARTCHAR nine
ENCODING 57
SWIDTH 306 0
DWIDTH 5 0
BBX 5 7 0 0
BITMAP
2A00
5540
5540
1540
0140
5940
2500
ENDCHAR
STARTCHAR colon
ENCODING 58
SWIDTH 176 0
DWIDTH 3 0
BBX 3 4 0 0
BITMAP
54
00
00
54
ENDCHAR
STARTCHAR semicolon
ENCODING 59
SWIDTH 217 0
DWIDTH 3 0
BBX 3 5 0 -1
BITMAP
14
00
14
14
54
ENDCHAR
STARTCHAR less
ENCODING 60
SWIDTH 450 0
DWIDTH 7 0
BBX 6 7 1 0
BITMAP
0010
0190
0990
6500
6640
0550
0090
ENDCHAR
STARTCHAR equal
ENCODING 61
SWIDTH 344 0
DWIDTH 6 0
BBX 5 5 0 1
BITMAP
6A40
6A40
0000
6A40
6A40
ENDCHAR
STARTCHAR greater
ENCODING 62
SWIDTH 450 0
DWIDTH 7 0
BBX 7 7 0 0
BITMAP
5000
1800
1540
0264
1940
5900
6000
ENDCHAR
STARTCHAR question
ENCODING 63
SWIDTH 346 0
DWIDTH 6 0
BBX 4 7 1 0
BITMAP
68
66
05
25
28
14
14
ENDCHAR
STARTCHAR at
ENCODING 64
SWIDTH 490 0
DWIDTH 8 0
BBX 8 7 0 0
BITMAP
0AE0
2568
5599
5555
5145
2414
0A90
ENDCHAR
STARTCHAR A
ENCODING 65
SWIDTH 798 0
DWIDTH 13 0
BBX 13 14 0 0
BITMAP
00560000
00554000
00A88000
01554000
01555000
02A56000
05529000
05515400
0A805800
1559A400
15695500
2A6A5600
55002900
55001540
ENDCHAR
STARTCHAR B
ENCODING 66
SWIDTH 784 0
DWIDTH 13 0
BBX 12 14 0 0
BITMAP
55AA90
55AA94
55A964
550055
550055
55AA65
55AA84
550016
55AA96
550015
550025
55A995
55AA54
55AA60
ENDCHAR
STARTCHAR C
ENCODING 67
SWIDTH 776 0
DWIDTH 12 0
BBX 12 14 0 0
BITMAP
006AA0
065A95
099A99
258024
1A0000
550000
540000
540000
550000
1A0000
258024
059A99
065A95
005550
ENDCHAR
STARTCHAR D
ENCODING 68
SWIDTH 806 0
DWIDTH 13 0
BBX 13 14 0 0
BITMAP
55AA4000
55A96000
55A99800
55009500
55002900
55001540
55001540
55001540
55001540
55002900
55009500
55A99800
55A96000
55AA4000
ENDCHAR
STARTCHAR E
ENCODING 69
SWIDTH 677 0
DWIDTH 11 0
BBX 11 14 0 0
BITMAP
55AAA4
55AAA4
55AAA4
550000
550000
550000
55AA90
55AA90
55AA90
550000
550000
55AAA4
55AAA4
55AAA4
ENDCHAR
STARTCHAR F
ENCODING 70
SWIDTH 677 0
DWIDTH 11 0
BBX 11 14 0 0
BITMAP
55AAA4
55AAA4
55AAA4
550000
550000
550000
55AA90
55AA90
55AA90
550000
550000
550000
550000
550000
ENDCHAR
STARTCHAR G
ENCODING 71
SWIDTH 872 0
DWIDTH 14 0
BBX 14 14 0 0
BITMAP
006AA000
065A9500
099A9940
25801640
1A000400
55000000
5401AA90
5401AA90
55015550
1A000540
25802580
059A9940
065A9500
00555000
ENDCHAR
STARTCHAR H
ENCODING 72
SWIDTH 781 0
DWIDTH 13 0
BBX 12 14 0 0
BITMAP
550015
550015
550015
550015
550015
550015
55AA55
55AA55
55AA55
550015
550015
550015
550015
550015
ENDCHAR
STARTCHAR I
ENCODING 73
SWIDTH 262 0
DWIDTH 4 0
BBX 4 14 0 0
BITMAP
55
55
55
55
55
55
55
55
55
55
55
55
55
55
ENDCHAR
STARTCHAR J
ENCODING 74
SWIDTH 674 0
DWIDTH 11 0
BBX 10 14 0 0
BITMAP
000150
000150
000150
000150
000150
000150
000150
000150
540150
540250
550550
19A650
15A540
055500
ENDCHAR
STARTCHAR K
ENCODING 75
SWIDTH 739 0
DWIDTH 12 0
BBX 12 14 0 0
BITMAP
550064
550254
550560
550650
551540
551600
559400
566800
559600
552540
551640
550560
550254
5500A5
ENDCHAR
STARTCHAR L
ENCODING 76
SWIDTH 604 0
DWIDTH 10 0
BBX 10 14 0 0
BITMAP
550000
550000
550000
550000
550000
550000
550000
550000
550000
550000
550000
55AA90
55AA90
55AA90
ENDCHAR
STARTCHAR M
ENCODING 77
SWIDTH 909 0
DWIDTH 15 0
BBX 14 14 0 0
BITMAP
55000150
55400550
55801150
55601550
55949550
55655550
55965550
55155150
55160150
55090150
55010150
55000150
55000150
55000150
ENDCHAR
STARTCHAR N
ENCODING 78
SWIDTH 796 0
DWIDTH 13 0
BBX 12 14 0 0
BITMAP
550015
554015
558015
556015
559415
556815
559615
552955
551655
550955
550255
550155
550055
550015
ENDCHAR
STARTCHAR O
ENCODING 79
SWIDTH 894 0
DWIDTH 14 0
BBX 14 14 0 0
BITMAP
006AA000
065A9500
099A9940
25801680
1A000550
55000150
54000150
54000190
55000150
1A000550
25801640
059A9940
065A9500
00555000
ENDCHAR
STARTCHAR P
ENCODING 80
SWIDTH 743 0
DWIDTH 12 0
BBX 12 14 0 0
BITMAP
55AA90
55AA94
55A964
550055
550055
55AA65
55AA84
550014
55AA90
550000
550000
550000
550000
550000
ENDCHAR
STARTCHAR Q
ENCODING 81
SWIDTH 911 0
DWIDTH 15 0
BBX 14 14 0 0
BITMAP
006AA000
065A9500
099A9940
25801680
1A000550
550001A0
540002A0
54000150
55001960
1A005650
25806980
059A5650
065A9590
00555140
ENDCHAR
STARTCHAR R
ENCODING 82
SWIDTH 745 0
DWIDTH 12 0
BBX 12 14 0 0
BITMAP
55AA90
55AA94
55A964
550055
550055
55AA65
55AA84
550014
55AA90
550550
550160
550254
550158
550094
ENDCHAR
STARTCHAR S
ENCODING 83
SWIDTH 660 0
DWIDTH 11 0
BBX 10 14 0 0
BITMAP
06A900
15A980
195550
550150
550000
199000
155600
015590
001960
000250
550290
59A960
15A980
055500
ENDCHAR
STARTCHAR T
ENCODING 84
SWIDTH 641 0
DWIDTH 10 0
BBX 10 14 0 0
BITMAP
6AAAA0
6AAAA0
6AAAA0
005400
005400
005400
005400
005400
005400
005400
005400
005400
005400
005400
ENDCHAR
STARTCHAR U
ENCODING 85
SWIDTH 702 0
DWIDTH 11 0
BBX 11 14 0 0
BITMAP
550054
550054
550054
550054
550054
550054
550054
550054
550054
150154
1A0294
16A960
09A940
015500
ENDCHAR
STARTCHAR V
ENCODING 86
SWIDTH 758 0
DWIDTH 12 0
BBX 12 14 0 0
BITMAP
550016
550055
2A00A4
250058
154154
068290
094160
055550
016640
029180
015540
005900
00A800
005500
ENDCHAR
STARTCHAR W
ENCODING 87
SWIDTH 972 0
DWIDTH 16 0
BBX 15 14 0 0
BITMAP
54055054
550540A4
15058054
29055154
25156150
15555290
15565550
06461550
0A555940
05549440
05545540
01505500
02901600
01502500
ENDCHAR
STARTCHAR X
ENCODING 88
SWIDTH 712 0
DWIDTH 11 0
BBX 11 14 0 0
BITMAP
1A0154
254190
068550
055680
019540
015500
00A400
005600
022900
055580
095A50
158560
290254
560168
ENDCHAR
STARTCHAR Y
ENCODING 89
SWIDTH 769 0
DWIDTH 12 0
BBX 12 14 0 0
BITMAP
56005A
2940A5
158158
095190
01A550
015980
00A540
004100
001500
001500
001500
001500
001500
001500
ENDCHAR
STARTCHAR Z
ENCODING 90
SWIDTH 708 0
DWIDTH 11 0
BBX 11 14 0 0
BITMAP
1AA968
1AA654
1A9560
000A50
001580
001900
005500
006800
025400
056000
0A5000
159AA0
196AA0
556AA0
ENDCHAR
STARTCHAR bracketleft
ENCODING 91
SWIDTH 320 0
DWIDTH 5 0
BBX 4 8 0 -1
BITMAP
15
55
54
54
54
54
55
15
ENDCHAR
STARTCHAR backslash
ENCODING 92
SWIDTH 298 0
DWIDTH 5 0
BBX 4 7 0 0
BITMAP
54
14
28
15
05
0A
05
ENDCHAR
STARTCHAR bracketright
ENCODING 93
SWIDTH 320 0
DWIDTH 5 0
BBX 4 8 1 -1
BITMAP
55
55
15
15
15
15
55
55
ENDCHAR
STARTCHAR asciicircum
ENCODING 94
SWIDTH 309 0
DWIDTH 5 0
BBX 3 3 1 4
BITMAP
10
54
98
ENDCHAR
STARTCHAR underscore
ENCODING 95
SWIDTH 472 0
DWIDTH 8 0
BBX 6 2 1 0
BITMAP
AA90
AA90
ENDCHAR
STARTCHAR grave
ENCODING 96
SWIDTH 195 0
DWIDTH 3 0
BBX 1 2 1 8
BITMAP
40
40
ENDCHAR
STARTCHAR a
ENCODING 97
SWIDTH 414 0
DWIDTH 7 0
BBX 7 7 0 0
BITMAP
0A40
0680
1640
2550
1A60
5A90
9054
ENDCHAR
STARTCHAR b
ENCODING 98
SWIDTH 423 0
DWIDTH 7 0
BBX 7 7 0 0
BITMAP
5A90
5A90
5AA0
5410
5A94
5A90
5A90
ENDCHAR
STARTCHAR c
ENCODING 99
SWIDTH 446 0
DWIDTH 7 0
BBX 7 7 0 0
BITMAP
0950
2554
5410
5000
5400
2554
0950
ENDCHAR
STARTCHAR d
ENCODING 100
SWIDTH 450 0
DWIDTH 7 0
BBX 7 7 0 0
BITMAP
5A90
5A50
5454
5414
5454
5A50
5A90
ENDCHAR
STARTCHAR e
ENCODING 101
SWIDTH 363 0
DWIDTH 6 0
BBX 6 7 0 0
BITMAP
5A90
5A90
5400
5A80
5A80
5A90
5A90
ENDCHAR
STARTCHAR f
ENCODING 102
SWIDTH 365 0
DWIDTH 6 0
BBX 6 7 0 0
BITMAP
5A90
5A90
5400
5A80
5A80
5400
5400
ENDCHAR
STARTCHAR g
ENCODING 103
SWIDTH 483 0
DWIDTH 8 0
BBX 7 7 0 0
BITMAP
0950
2594
5410
5054
5468
2558
0960
ENDCHAR
STARTCHAR h
ENCODING 104
SWIDTH 428 0
DWIDTH 7 0
BBX 7 7 0 0
BITMAP
5454
5454
5454
5A94
5A94
5454
5454
ENDCHAR
STARTCHAR i
ENCODING 105
SWIDTH 176 0
DWIDTH 3 0
BBX 3 7 0 0
BITMAP
54
54
54
54
54
54
54
ENDCHAR
STARTCHAR j
ENCODING 106
SWIDTH 390 0
DWIDTH 6 0
BBX 6 7 0 0
BITMAP
0050
0050
0050
0050
5050
5A50
1540
ENDCHAR
STARTCHAR k
ENCODING 107
SWIDTH 381 0
DWIDTH 6 0
BBX 6 7 0 0
BITMAP
5550
5680
5940
5600
5900
5580
5550
ENDCHAR
STARTCHAR l
ENCODING 108
SWIDTH 330 0
DWIDTH 5 0
BBX 5 7 0 0
BITMAP
5400
5400
5400
5400
5400
5A80
5A80
ENDCHAR
STARTCHAR m
ENCODING 109
SWIDTH 501 0
DWIDTH 8 0
BBX 8 7 0 0
BITMAP
5825
5965
5AA5
5595
5545
5405
5405
ENDCHAR
STARTCHAR n
ENCODING 110
SWIDTH 444 0
DWIDTH 7 0
BBX 7 7 0 0
BITMAP
5414
5914
5A14
5994
5654
5494
5454
ENDCHAR
STARTCHAR o
ENCODING 111
SWIDTH 494 0
DWIDTH 8 0
BBX 8 7 0 0
BITMAP
0950
2558
5415
5005
5415
2558
0950
ENDCHAR
STARTCHAR p
ENCODING 112
SWIDTH 412 0
DWIDTH 7 0
BBX 6 7 0 0
BITMAP
5A90
5A60
5A50
5420
5A90
5400
5400
ENDCHAR
STARTCHAR q
ENCODING 113
SWIDTH 494 0
DWIDTH 8 0
BBX 8 7 0 0
BITMAP
0950
2558
5415
5015
5469
2558
0964
ENDCHAR
STARTCHAR r
ENCODING 114
SWIDTH 412 0
DWIDTH 7 0
BBX 6 7 0 0
BITMAP
5A90
5A60
5A50
5420
5A90
5550
54A0
ENDCHAR
STARTCHAR s
ENCODING 115
SWIDTH 379 0
DWIDTH 6 0
BBX 6 7 0 0
BITMAP
1540
5550
5400
1A80
0150
5550
1540
ENDCHAR
STARTCHAR t
ENCODING 116
SWIDTH 349 0
DWIDTH 6 0
BBX 6 7 0 0
BITMAP
6A90
6A90
0500
0500
0500
0500
0500
ENDCHAR
STARTCHAR u
ENCODING 117
SWIDTH 400 0
DWIDTH 6 0
BBX 6 7 0 0
BITMAP
5450
5450
5450
5450
5450
1650
1980
ENDCHAR
STARTCHAR v
ENCODING 118
SWIDTH 394 0
DWIDTH 6 0
BBX 6 7 0 0
BITMAP
9090
5460
1950
2940
1680
0640
0A00
ENDCHAR
STARTCHAR w
ENCODING 119
SWIDTH 521 0
DWIDTH 8 0
BBX 8 7 0 0
BITMAP
9145
5189
5595
19A5
29A4
1658
1658
ENDCHAR
STARTCHAR x
ENCODING 120
SWIDTH 369 0
DWIDTH 6 0
BBX 6 7 0 0
BITMAP
5550
2A80
1640
0A00
1940
1A80
9550
ENDCHAR
STARTCHAR y
ENCODING 121
SWIDTH 422 0
DWIDTH 7 0
BBX 7 7 0 0
BITMAP
5494
2960
1640
0540
0500
0500
0500
ENDCHAR
STARTCHAR z
ENCODING 122
SWIDTH 409 0
DWIDTH 7 0
BBX 6 7 0 0
BITMAP
6A90
6AA0
0250
0940
2500
6A90
6A90
ENDCHAR
STARTCHAR braceleft
ENCODING 123
SWIDTH 443 0
DWIDTH 7 0
BBX 5 8 1 -1
BITMAP
1540
1540
1500
5500
5500
1500
1540
1540
ENDCHAR
STARTCHAR bar
ENCODING 124
SWIDTH 196 0
DWIDTH 3 0
BBX 3 8 0 0
BITMAP
54
54
54
54
54
54
54
54
ENDCHAR
STARTCHAR braceright
ENCODING 125
SWIDTH 506 0
DWIDTH 8 0
BBX 5 8 2 -1
BITMAP
5500
5500
1500
1540
1540
1500
5500
5500
ENDCHAR
STARTCHAR asciitilde
ENCODING 126
SWIDTH 450 0
DWIDTH 7 0
BBX 7 3 0 2
BITMAP
2904
6904
41A4
ENDCHAR
STARTCHAR uni00A0
ENCODING 160
SWIDTH 280 0
DWIDTH 4 0
BBX 1 1 0 0
BITMAP
00
ENDCHAR
STARTCHAR exclamdown
ENCODING 161
SWIDTH 196 0
DWIDTH 3 0
BBX 3 7 0 -2
BITMAP
54
00
54
54
54
54
54
ENDCHAR
STARTCHAR cent
ENCODING 162
SWIDTH 305 0
DWIDTH 5 0
BBX 5 8 0 -1
BITMAP
0500
1A00
5940
A000
A000
5A40
1A00
0500
ENDCHAR
STARTCHAR sterling
ENCODING 163
SWIDTH 408 0
DWIDTH 7 0
BBX 6 7 0 0
BITMAP
6A40
5540
AA40
AA40
1400
AAA0
AAA0
ENDCHAR
STARTCHAR currency
ENCODING 164
SWIDTH 401 0
DWIDTH 6 0
BBX 6 6 0 0
BITMAP
1040
5650
1580
1580
5610
1040
ENDCHAR
STARTCHAR yen
ENCODING 165
SWIDTH 423 0
DWIDTH 7 0
BBX 7 7 0 0
BITMAP
5494
2960
1640
0540
2550
2550
0500
ENDCHAR
STARTCHAR brokenbar
ENCODING 166
SWIDTH 196 0
DWIDTH 3 0
BBX 3 7 0 0
BITMAP
54
54
54
00
54
54
54
ENDCHAR
STARTCHAR section
ENCODING 167
SWIDTH 322 0
DWIDTH 5 0
BBX 5 7 0 0
BITMAP
3F40
5900
5540
5540
5540
1940
2F40
ENDCHAR
STARTCHAR dieresis
ENCODING 168
SWIDTH 287 0
DWIDTH 5 0
BBX 3 1 1 8
BITMAP
84
ENDCHAR
STARTCHAR copyright
ENCODING 169
SWIDTH 493 0
DWIDTH 8 0
BBX 8 8 0 0
BITMAP
0690
2414
5144
4405
4401
5144
2414
0550
ENDCHAR
STARTCHAR ordfeminine
ENCODING 170
SWIDTH 331 0
DWIDTH 5 0
BBX 4 4 1 3
BITMAP
64
64
68
99
ENDCHAR
STARTCHAR guillemotleft
ENCODING 171
SWIDTH 298 0
DWIDTH 5 0
BBX 3 3 1 2
BITMAP
88
54
94
ENDCHAR
STARTCHAR logicalnot
ENCODING 172
SWIDTH 420 0
DWIDTH 7 0
BBX 6 4 0 1
BITMAP
6AA0
0000
6AA0
0050
ENDCHAR
STARTCHAR uni00AD
ENCODING 173
SWIDTH 326 0
DWIDTH 5 0
BBX 4 2 1 2
BITMAP
A9
A9
ENDCHAR
STARTCHAR registered
ENCODING 174
SWIDTH 493 0
DWIDTH 8 0
BBX 8 8 0 0
BITMAP
0690
2414
5004
4595
4581
5444
2414
0550
ENDCHAR
STARTCHAR macron
ENCODING 175
SWIDTH 331 0
DWIDTH 5 0
BBX 4 1 1 8
BITMAP
A9
ENDCHAR
STARTCHAR degree
ENCODING 176
SWIDTH 298 0
DWIDTH 5 0
BBX 3 4 1 3
BITMAP
64
58
54
64
ENDCHAR
STARTCHAR plusminus
ENCODING 177
SWIDTH 418 0
DWIDTH 7 0
BBX 6 7 0 0
BITMAP
0500
2550
0500
2550
0500
6AA0
6AA0
ENDCHAR
STARTCHAR uni00B2
ENCODING 178
SWIDTH 233 0
DWIDTH 4 0
BBX 2 4 1 3
BITMAP
50
50
50
A0
ENDCHAR
STARTCHAR uni00B3
ENCODING 179
SWIDTH 228 0
DWIDTH 4 0
BBX 2 4 1 3
BITMAP
50
50
10
90
ENDCHAR
STARTCHAR acute
ENCODING 180
SWIDTH 195 0
DWIDTH 3 0
BBX 1 2 1 8
BITMAP
40
80
ENDCHAR
STARTCHAR uni00B5
ENCODING 181
SWIDTH 506 0
DWIDTH 8 0
BBX 8 9 0 -2
BITMAP
5450
5450
5450
5450
5450
5964
5995
5400
5400
ENDCHAR
STARTCHAR paragraph
ENCODING 182
SWIDTH 435 0
DWIDTH 7 0
BBX 6 7 0 0
BITMAP
2AA0
5AA0
5550
5150
1550
0150
0150
ENDCHAR
STARTCHAR periodcentered
ENCODING 183
SWIDTH 176 0
DWIDTH 3 0
BBX 3 1 0 3
BITMAP
54
ENDCHAR
STARTCHAR cedilla
ENCODING 184
SWIDTH 261 0
DWIDTH 4 0
BBX 3 3 1 -3
BITMAP
A0
14
A0
ENDCHAR
STARTCHAR uni00B9
ENCODING 185
SWIDTH 218 0
DWIDTH 3 0
BBX 2 4 1 3
BITMAP
50
50
50
50
ENDCHAR
STARTCHAR ordmasculine
ENCODING 186
SWIDTH 335 0
DWIDTH 5 0
BBX 4 4 1 3
BITMAP
54
55
85
68
ENDCHAR
STARTCHAR guillemotright
ENCODING 187
SWIDTH 298 0
DWIDTH 5 0
BBX 4 3 0 2
BITMAP
55
55
26
ENDCHAR
STARTCHAR onequarter
ENCODING 188
SWIDTH 429 0
DWIDTH 7 0
BBX 7 7 0 0
BITMAP
5450
1490
1540
0240
0550
0954
1454
ENDCHAR
STARTCHAR onehalf
ENCODING 189
SWIDTH 437 0
DWIDTH 7 0
BBX 7 7 0 0
BITMAP
5450
1480
1540
0650
0524
1450
1450
ENDCHAR
STARTCHAR threequarters
ENCODING 190
SWIDTH 409 0
DWIDTH 7 0
BBX 6 7 0 0
BITMAP
1050
1480
5540
1600
0550
1850
1460
ENDCHAR
STARTCHAR questiondown
ENCODING 191
SWIDTH 346 0
DWIDTH 6 0
BBX 4 7 1 -1
BITMAP
14
14
14
94
60
A5
68
ENDCHAR
STARTCHAR Agrave
ENCODING 192
SWIDTH 798 0
DWIDTH 13 0
BBX 13 19 0 0
BITMAP
00500000
00A00000
00540000
00240000
00000000
00560000
00554000
00A88000
01554000
01555000
02A56000
05529000
05515400
0A805800
1559A400
15695500
2A6A5600
55002900
55001540
ENDCHAR
STARTCHAR Aacute
ENCODING 193
SWIDTH 798 0
DWIDTH 13 0
BBX 13 19 0 0
BITMAP
00014000
00028000
00054000
00060000
00000000
00560000
00554000
00A88000
01554000
01555000
02A56000
05529000
05515400
0A805800
1559A400
15695500
2A6A5600
55002900
55001540
ENDCHAR
STARTCHAR Acircumflex
ENCODING 194
SWIDTH 798 0
DWIDTH 13 0
BBX 13 19 0 0
BITMAP
00140000
00550000
01654000
02425000
00000000
00560000
00554000
00A88000
01554000
01555000
02A56000
05529000
05515400
0A805800
1559A400
15695500
2A6A5600
55002900
55001540
ENDCHAR
STARTCHAR Atilde
ENCODING 195
SWIDTH 798 0
DWIDTH 13 0
BBX 13 18 0 0
BITMAP
00A01000
01085000
01024000
00000000
00560000
00554000
00A88000
01554000
01555000
02A56000
05529000
05515400
0A805800
1559A400
15695500
2A6A5600
55002900
55001540
ENDCHAR
STARTCHAR Adieresis
ENCODING 196
SWIDTH 798 0
DWIDTH 13 0
BBX 13 19 0 0
BITMAP
01819000
05221000
05221000
01819000
00000000
00560000
00554000
00A88000
01554000
01555000
02A56000
05529000
05515400
0A805800
1559A400
15695500
2A6A5600
55002900
55001540
ENDCHAR
STARTCHAR Aring
ENCODING 197
SWIDTH 798 0
DWIDTH 13 0
BBX 13 18 0 0
BITMAP
00190000
00520000
00520000
00190000
00560000
00554000
00A88000
01554000
01555000
02A56000
05529000
05515400
0A805800
1559A400
15695500
2A6A5600
55002900
55001540
ENDCHAR
STARTCHAR AE
ENCODING 198
SWIDTH 1078 0
DWIDTH 17 0
BBX 17 14 0 0
BITMAP
000156AA40
000556AA40
001556AA40
0025500000
0055500000
0091500000
005556A900
025556A900
019156A900
0550540000
0659540000
155955AA40
196955AA40
550055AA40
ENDCHAR
STARTCHAR Ccedilla
ENCODING 199
SWIDTH 776 0
DWIDTH 12 0
BBX 12 18 0 -4
BITMAP
006AA0
065A95
099A99
258024
1A0000
550000
540000
540000
550000
1A0000
258024
059A99
065A95
005550
000400
002900
000100
001900
ENDCHAR
STARTCHAR Egrave
ENCODING 200
SWIDTH 677 0
DWIDTH 11 0
BBX 11 19 0 0
BITMAP
005000
001800
001500
000600
000000
55AAA4
55AAA4
55AAA4
550000
550000
550000
55AA90
55AA90
55AA90
550000
550000
55AAA4
55AAA4
55AAA4
ENDCHAR
STARTCHAR Eacute
ENCODING 201
SWIDTH 677 0
DWIDTH 11 0
BBX 11 19 0 0
BITMAP
000500
001500
002800
005400
000000
55AAA4
55AAA4
55AAA4
550000
550000
550000
55AA90
55AA90
55AA90
550000
550000
55AAA4
55AAA4
55AAA4
ENDCHAR
STARTCHAR Ecircumflex
ENCODING 202
SWIDTH 677 0
DWIDTH 11 0
BBX 11 19 0 0
BITMAP
001400
009500
016540
028240
000000
55AAA4
55AAA4
55AAA4
550000
550000
550000
55AA90
55AA90
55AA90
550000
550000
55AAA4
55AAA4
55AAA4
ENDCHAR
STARTCHAR Edieresis
ENCODING 203
SWIDTH 677 0
DWIDTH 11 0
BBX 11 19 0 0
BITMAP
018190
041110
041120
018190
000000
55AAA4
55AAA4
55AAA4
550000
550000
550000
55AA90
55AA90
55AA90
550000
550000
55AAA4
55AAA4
55AAA4
ENDCHAR
STARTCHAR Igrave
ENCODING 204
SWIDTH 262 0
DWIDTH 4 0
BBX 5 19 -1 0
BITMAP
5000
5400
2400
1600
0000
1540
1540
1540
1540
1540
1540
1540
1540
1540
1540
1540
1540
1540
1540
ENDCHAR
STARTCHAR Iacute
ENCODING 205
SWIDTH 262 0
DWIDTH 4 0
BBX 5 19 0 0
BITMAP
0140
0540
0A00
1500
0000
5500
5500
5500
5500
5500
5500
5500
5500
5500
5500
5500
5500
5500
5500
ENDCHAR
STARTCHAR Icircumflex
ENCODING 206
SWIDTH 262 0
DWIDTH 4 0
BBX 7 19 -2 0
BITMAP
0140
0950
1554
5828
0000
0550
0550
0550
0550
0550
0550
0550
0550
0550
0550
0550
0550
0550
0550
ENDCHAR
STARTCHAR Idieresis
ENCODING 207
SWIDTH 262 0
DWIDTH 4 0
BBX 8 19 -2 0
BITMAP
2818
4151
4152
2818
0000
0550
0550
0550
0550
0550
0550
0550
0550
0550
0550
0550
0550
0550
0550
ENDCHAR
STARTCHAR Eth
ENCODING 208
SWIDTH 856 0
DWIDTH 14 0
BBX 14 14 0 0
BITMAP
156A9000
15695800
15666600
15406940
15000680
00000A40
6AA40550
6AA40550
6AA40A40
15000680
15406940
156A6600
156A5800
156A9000
ENDCHAR
STARTCHAR Ntilde
ENCODING 209
SWIDTH 796 0
DWIDTH 13 0
BBX 12 18 0 0
BITMAP
00A010
010850
010240
000000
550015
554015
558015
556015
559415
556815
559615
552955
551655
550955
550255
550155
550055
550015
ENDCHAR
STARTCHAR Ograve
ENCODING 210
SWIDTH 894 0
DWIDTH 14 0
BBX 14 19 0 0
BITMAP
00400000
00180000
00150000
000A0000
00000000
006AA000
065A9500
099A9940
25801680
1A000550
55000150
54000150
54000190
55000150
1A000550
25801640
059A9940
065A9500
00555000
ENDCHAR
STARTCHAR Oacute
ENCODING 211
SWIDTH 894 0
DWIDTH 14 0
BBX 14 19 0 0
BITMAP
00005000
00015000
00018000
00090000
00000000
006AA000
065A9500
099A9940
25801680
1A000550
55000150
54000150
54000190
55000150
1A000550
25801640
059A9940
065A9500
00555000
ENDCHAR
STARTCHAR Ocircumflex
ENCODING 212
SWIDTH 894 0
DWIDTH 14 0
BBX 14 19 0 0
BITMAP
00050000
00254000
00555000
0060A000
00000000
006AA000
065A9500
099A9940
25801680
1A000550
55000150
54000150
54000190
55000150
1A000550
25801640
059A9940
065A9500
00555000
ENDCHAR
STARTCHAR Otilde
ENCODING 213
SWIDTH 894 0
DWIDTH 14 0
BBX 14 18 0 0
BITMAP
00241000
00852000
00419000
00000000
006AA000
065A9500
099A9940
25801680
1A000550
55000150
54000150
54000190
55000150
1A000550
25801640
059A9940
065A9500
00555000
ENDCHAR
STARTCHAR Odieresis
ENCODING 214
SWIDTH 894 0
DWIDTH 14 0
BBX 14 19 0 0
BITMAP
00A06400
01044400
01044800
00A06400
00000000
006AA000
065A9500
099A9940
25801680
1A000550
55000150
54000150
54000190
55000150
1A000550
25801640
059A9940
065A9500
00555000
ENDCHAR
STARTCHAR multiply
ENCODING 215
SWIDTH 370 0
DWIDTH 6 0
BBX 4 4 1 1
BITMAP
59
65
95
55
ENDCHAR
STARTCHAR Oslash
ENCODING 216
SWIDTH 894 0
DWIDTH 14 0
BBX 14 14 0 0
BITMAP
006A9500
065A9640
099A6540
25805640
1A016550
55025560
54196260
54664150
55980150
16940550
16501640
19869940
151A9500
01655000
ENDCHAR
STARTCHAR Ugrave
ENCODING 217
SWIDTH 702 0
DWIDTH 11 0
BBX 11 19 0 0
BITMAP
014000
024000
015000
009000
000000
550054
550054
550054
550054
550054
550054
550054
550054
550054
150154
1A0294
16A960
09A940
015500
ENDCHAR
STARTCHAR Uacute
ENCODING 218
SWIDTH 702 0
DWIDTH 11 0
BBX 11 19 0 0
BITMAP
000440
000A00
001500
002800
000000
550054
550054
550054
550054
550054
550054
550054
550054
550054
150154
1A0294
16A960
09A940
015500
ENDCHAR
STARTCHAR Ucircumflex
ENCODING 219
SWIDTH 702 0
DWIDTH 11 0
BBX 11 19 0 0
BITMAP
005000
016400
028600
094540
000000
550054
550054
550054
550054
550054
550054
550054
550054
550054
150154
1A0294
16A960
09A940
015500
ENDCHAR
STARTCHAR Udieresis
ENCODING 220
SWIDTH 702 0
DWIDTH 11 0
BBX 11 19 0 0
BITMAP
064240
048450
048850
064240
000000
550054
550054
550054
550054
550054
550054
550054
550054
550054
150154
1A0294
16A960
09A940
015500
ENDCHAR
STARTCHAR Yacute
ENCODING 221
SWIDTH 769 0
DWIDTH 12 0
BBX 12 19 0 0
BITMAP
000140
000540
000A00
001500
000000
56005A
2940A5
158158
095190
01A550
015980
00A540
004100
001500
001500
001500
001500
001500
001500
ENDCHAR
STARTCHAR Thorn
ENCODING 222
SWIDTH 743 0
DWIDTH 12 0
BBX 12 14 0 0
BITMAP
550000
550000
550000
55AA90
55AA94
55AA65
550055
550055
55AA65
55AA94
55AA90
550000
550000
550000
ENDCHAR
STARTCHAR germandbls
ENCODING 223
SWIDTH 424 0
DWIDTH 7 0
BBX 7 7 0 0
BITMAP
2A90
5A50
55A0
5410
5594
5690
5690
ENDCHAR
STARTCHAR agrave
ENCODING 224
SWIDTH 414 0
DWIDTH 7 0
BBX 7 10 0 0
BITMAP
0400
0500
0000
0A40
0680
1640
2550
1A60
5A90
9054
ENDCHAR
STARTCHAR aacute
ENCODING 225
SWIDTH 414 0
DWIDTH 7 0
BBX 7 10 0 0
BITMAP
0040
0140
0000
0A40
0680
1640
2550
1A60
5A90
9054
ENDCHAR
STARTCHAR acircumflex
ENCODING 226
SWIDTH 414 0
DWIDTH 7 0
BBX 7 10 0 0
BITMAP
0100
0940
0000
0A40
0680
1640
2550
1A60
5A90
9054
ENDCHAR
STARTCHAR atilde
ENCODING 227
SWIDTH 414 0
DWIDTH 7 0
BBX 7 10 0 0
BITMAP
0940
1180
0000
0A40
0680
1640
2550
1A60
5A90
9054
ENDCHAR
STARTCHAR adieresis
ENCODING 228
SWIDTH 414 0
DWIDTH 7 0
BBX 7 9 0 0
BITMAP
0880
0000
0A40
0680
1640
2550
1A60
5A90
9054
ENDCHAR
STARTCHAR aring
ENCODING 229
SWIDTH 414 0
DWIDTH 7 0
BBX 7 10 0 0
BITMAP
0500
0500
0000
0A40
0680
1640
2550
1A60
5A90
9054
ENDCHAR
STARTCHAR ae
ENCODING 230
SWIDTH 593 0
DWIDTH 9 0
BBX 9 7 0 0
BITMAP
026A80
01AA80
099000
06AA40
25AA40
1AAA80
905A80
ENDCHAR
STARTCHAR ccedilla
ENCODING 231
SWIDTH 446 0
DWIDTH 7 0
BBX 7 10 0 -3
BITMAP
0950
2554
5410
5000
5400
2554
0A50
0240
0080
0640
ENDCHAR
STARTCHAR egrave
ENCODING 232
SWIDTH 363 0
DWIDTH 6 0
BBX 6 10 0 0
BITMAP
0400
0500
0000
5A90
5A90
5400
5A80
5A80
5A90
5A90
ENDCHAR
STARTCHAR eacute
ENCODING 233
SWIDTH 363 0
DWIDTH 6 0
BBX 6 10 0 0
BITMAP
0040
0100
0000
5A90
5A90
5400
5A80
5A80
5A90
5A90
ENDCHAR
STARTCHAR ecircumflex
ENCODING 234
SWIDTH 363 0
DWIDTH 6 0
BBX 6 9 0 0
BITMAP
0940
0000
5A90
5A90
5400
5A80
5A80
5A90
5A90
ENDCHAR
STARTCHAR edieresis
ENCODING 235
SWIDTH 363 0
DWIDTH 6 0
BBX 6 9 0 0
BITMAP
0840
0000
5A90
5A90
5400
5A80
5A80
5A90
5A90
ENDCHAR
STARTCHAR igrave
ENCODING 236
SWIDTH 176 0
DWIDTH 3 0
BBX 3 10 0 0
BITMAP
40
50
00
54
54
54
54
54
54
54
ENDCHAR
STARTCHAR iacute
ENCODING 237
SWIDTH 176 0
DWIDTH 3 0
BBX 3 10 0 0
BITMAP
04
14
00
54
54
54
54
54
54
54
ENDCHAR
STARTCHAR icircumflex
ENCODING 238
SWIDTH 176 0
DWIDTH 3 0
BBX 3 10 0 0
BITMAP
10
84
00
54
54
54
54
54
54
54
ENDCHAR
STARTCHAR idieresis
ENCODING 239
SWIDTH 176 0
DWIDTH 3 0
BBX 3 9 0 0
BITMAP
88
00
54
54
54
54
54
54
54
ENDCHAR
STARTCHAR eth
ENCODING 240
SWIDTH 455 0
DWIDTH 7 0
BBX 7 7 0 0
BITMAP
5A90
5A54
1018
6814
1014
5A54
5A90
ENDCHAR
STARTCHAR ntilde
ENCODING 241
SWIDTH 444 0
DWIDTH 7 0
BBX 7 10 0 0
BITMAP
0910
0580
0000
5414
5914
5A14
5994
5654
5494
5454
ENDCHAR
STARTCHAR ograve
ENCODING 242
SWIDTH 494 0
DWIDTH 8 0
BBX 8 10 0 0
BITMAP
0100
0200
0000
0950
2558
5415
5005
5415
2558
0950
ENDCHAR
STARTCHAR oacute
ENCODING 243
SWIDTH 494 0
DWIDTH 8 0
BBX 8 10 0 0
BITMAP
0040
0040
0000
0950
2558
5415
5005
5415
2558
0950
ENDCHAR
STARTCHAR ocircumflex
ENCODING 244
SWIDTH 494 0
DWIDTH 8 0
BBX 8 10 0 0
BITMAP
0100
0540
0000
0950
2558
5415
5005
5415
2558
0950
ENDCHAR
STARTCHAR otilde
ENCODING 245
SWIDTH 494 0
DWIDTH 8 0
BBX 8 10 0 0
BITMAP
0610
0490
0000
0950
2558
5415
5005
5415
2558
0950
ENDCHAR
STARTCHAR odieresis
ENCODING 246
SWIDTH 494 0
DWIDTH 8 0
BBX 8 9 0 0
BITMAP
0550
0000
0950
2558
5415
5005
5415
2558
0950
ENDCHAR
STARTCHAR divide
ENCODING 247
SWIDTH 418 0
DWIDTH 7 0
BBX 6 6 0 0
BITMAP
0100
0100
6AA0
6AA0
0100
0600
ENDCHAR
STARTCHAR oslash
ENCODING 248
SWIDTH 494 0
DWIDTH 8 0
BBX 8 7 0 0
BITMAP
0954
2564
5455
5145
5515
1558
1550
ENDCHAR
STARTCHAR ugrave
ENCODING 249
SWIDTH 400 0
DWIDTH 6 0
BBX 6 10 0 0
BITMAP
0400
0500
0000
5450
5450
5450
5450
5450
1650
1980
ENDCHAR
STARTCHAR uacute
ENCODING 250
SWIDTH 400 0
DWIDTH 6 0
BBX 6 9 0 0
BITMAP
0200
0000
5450
5450
5450
5450
5450
1650
1980
ENDCHAR
STARTCHAR ucircumflex
ENCODING 251
SWIDTH 400 0
DWIDTH 6 0
BBX 6 10 0 0
BITMAP
0400
0540
0000
5450
5450
5450
5450
5450
1650
1980
ENDCHAR
STARTCHAR udieresis
ENCODING 252
SWIDTH 400 0
DWIDTH 6 0
BBX 6 9 0 0
BITMAP
0540
0000
5450
5450
5450
5450
5450
1650
1980
ENDCHAR
STARTCHAR yacute
ENCODING 253
SWIDTH 422 0
DWIDTH 7 0
BBX 7 10 0 0
BITMAP
0040
0100
0000
5494
2960
1640
0540
0500
0500
0500
ENDCHAR
STARTCHAR thorn
ENCODING 254
SWIDTH 412 0
DWIDTH 7 0
BBX 6 7 0 0
BITMAP
5400
5A90
5A60
5450
5A60
5A90
5400
ENDCHAR
STARTCHAR ydieresis
ENCODING 255
SWIDTH 422 0
DWIDTH 7 0
BBX 7 9 0 0
BITMAP
0880
0000
5494
2960
1640
0540
0500
0500
0500
ENDCHAR
STARTCHAR Edotaccent
ENCODING 278
SWIDTH 677 0
DWIDTH 11 0
BBX 11 16 0 0
BITMAP
001800
001800
55AAA4
55AAA4
55AAA4
550000
550000
550000
55AA90
55AA90
55AA90
550000
550000
55AAA4
55AAA4
55AAA4
ENDCHAR
STARTCHAR edotaccent
ENCODING 279
SWIDTH 363 0
DWIDTH 6 0
BBX 6 10 0 0
BITMAP
0600
0700
0000
5A90
5A90
5400
5A80
5A80
5A90
5A90
ENDCHAR
STARTCHAR dotlessi
ENCODING 305
SWIDTH 176 0
DWIDTH 3 0
BBX 3 7 0 0
BITMAP
54
54
54
54
54
54
54
ENDCHAR
STARTCHAR OE
ENCODING 338
SWIDTH 1221 0
DWIDTH 20 0
BBX 19 14 0 0
BITMAP
0066402AA8
0656402AA8
0956402AA8
2580000000
1A00000000
5500000000
5400002AA0
5400002AA0
5500002AA0
1A00000000
2580000000
099A402AA8
0656402AA8
006A402AA8
ENDCHAR
STARTCHAR oe
ENCODING 339
SWIDTH 637 0
DWIDTH 10 0
BBX 10 7 0 0
BITMAP
0A4690
264690
540000
500690
540690
264690
0A4690
ENDCHAR
STARTCHAR Wcircumflex
ENCODING 372
SWIDTH 972 0
DWIDTH 16 0
BBX 15 19 0 0
BITMAP
00044000
00065000
00256000
00545800
00000000
54055054
550540A4
15058054
29055154
25156150
15555290
15565550
06461550
0A555940
05549440
05545540
01505500
02901600
01502500
ENDCHAR
STARTCHAR wcircumflex
ENCODING 373
SWIDTH 521 0
DWIDTH 8 0
BBX 8 10 0 0
BITMAP
0100
0550
0000
9145
5189
5595
19A5
29A4
1658
1658
ENDCHAR
STARTCHAR Ycircumflex
ENCODING 374
SWIDTH 769 0
DWIDTH 12 0
BBX 12 19 0 0
BITMAP
001400
009500
015540
018280
000000
56005A
2940A5
158158
095190
01A550
015980
00A540
004100
001500
001500
001500
001500
001500
001500
ENDCHAR
STARTCHAR ycircumflex
ENCODING 375
SWIDTH 422 0
DWIDTH 7 0
BBX 7 10 0 0
BITMAP
0100
0940
0000
5494
2960
1640
0540
0500
0500
0500
ENDCHAR
STARTCHAR Ydieresis
ENCODING 376
SWIDTH 769 0
DWIDTH 12 0
BBX 12 19 0 0
BITMAP
028190
041110
041120
028190
000000
56005A
2940A5
158158
095190
01A550
015980
00A540
004100
001500
001500
001500
001500
001500
001500
ENDCHAR
STARTCHAR circumflex
ENCODING 710
SWIDTH 298 0
DWIDTH 5 0
BBX 3 2 1 8
BITMAP
10
84
ENDCHAR
STARTCHAR dotaccent
ENCODING 729
SWIDTH 212 0
DWIDTH 3 0
BBX 2 2 1 8
BITMAP
90
D0
ENDCHAR
STARTCHAR ring
ENCODING 730
SWIDTH 212 0
DWIDTH 3 0
BBX 2 2 1 8
BITMAP
50
50
ENDCHAR
STARTCHAR tilde
ENCODING 732
SWIDTH 329 0
DWIDTH 5 0
BBX 4 2 1 8
BITMAP
91
58
ENDCHAR
STARTCHAR gravecomb
ENCODING 768
SWIDTH 0 0
DWIDTH 0 0
BBX 1 2 1 8
BITMAP
40
40
ENDCHAR
STARTCHAR acutecomb
ENCODING 769
SWIDTH 0 0
DWIDTH 0 0
BBX 1 2 1 8
BITMAP
40
80
ENDCHAR
STARTCHAR uni0302
ENCODING 770
SWIDTH 0 0
DWIDTH 0 0
BBX 3 2 1 8
BITMAP
10
84
ENDCHAR
STARTCHAR tildecomb
ENCODING 771
SWIDTH 0 0
DWIDTH 0 0
BBX 4 2 1 8
BITMAP
91
58
ENDCHAR
STARTCHAR uni0307
ENCODING 775
SWIDTH 0 0
DWIDTH 0 0
BBX 2 2 1 8
BITMAP
90
D0
ENDCHAR
STARTCHAR uni0308
ENCODING 776
SWIDTH 0 0
DWIDTH 0 0
BBX 3 1 1 8
BITMAP
84
ENDCHAR
STARTCHAR uni030A
ENCODING 778
SWIDTH 0 0
DWIDTH 0 0
BBX 2 2 1 8
BITMAP
50
50
ENDCHAR
STARTCHAR uni0327
ENCODING 807
SWIDTH 0 0
DWIDTH 0 0
BBX 3 3 1 -3
BITMAP
A0
14
A0
ENDCHAR
STARTCHAR Wgrave
ENCODING 7808
SWIDTH 972 0
DWIDTH 16 0
BBX 15 19 0 0
BITMAP
00050000
00054000
00028000
00015000
00000000
54055054
550540A4
15058054
29055154
25156150
15555290
15565550
06461550
0A555940
05549440
05545540
01505500
02901600
01502500
ENDCHAR
STARTCHAR wgrave
ENCODING 7809
SWIDTH 521 0
DWIDTH 8 0
BBX 8 10 0 0
BITMAP
0100
0080
0000
9145
5189
5595
19A5
29A4
1658
1658
ENDCHAR
STARTCHAR Wacute
ENCODING 7810
SWIDTH 972 0
DWIDTH 16 0
BBX 15 19 0 0
BITMAP
00011000
00024000
00054000
000A0000
00000000
54055054
550540A4
15058054
29055154
25156150
15555290
15565550
06461550
0A555940
05549440
05545540
01505500
02901600
01502500
ENDCHAR
STARTCHAR wacute
ENCODING 7811
SWIDTH 521 0
DWIDTH 8 0
BBX 8 10 0 0
BITMAP
0040
0140
0000
9145
5189
5595
19A5
29A4
1658
1658
ENDCHAR
STARTCHAR Wdieresis
ENCODING 7812
SWIDTH 972 0
DWIDTH 16 0
BBX 15 19 0 0
BITMAP
00642800
00844100
00844100
00642800
00000000
54055054
550540A4
15058054
29055154
25156150
15555290
15565550
06461550
0A555940
05549440
05545540
01505500
02901600
01502500
ENDCHAR
STARTCHAR wdieresis
ENCODING 7813
SWIDTH 521 0
DWIDTH 8 0
BBX 8 9 0 0
BITMAP
0150
0000
9145
5189
5595
19A5
29A4
1658
1658
ENDCHAR
STARTCHAR uni1E9E
ENCODING 7838
SWIDTH 784 0
DWIDTH 13 0
BBX 12 14 0 0
BITMAP
55AAA4
55AAA4
55AAA4
550000
550294
550560
550A54
551595
551556
550025
550025
552A96
552A95
552A64
ENDCHAR
STARTCHAR Ygrave
ENCODING 7922
SWIDTH 769 0
DWIDTH 12 0
BBX 12 19 0 0
BITMAP
005000
005800
002500
000600
000000
56005A
2940A5
158158
095190
01A550
015980
00A540
004100
001500
001500
001500
001500
001500
001500
ENDCHAR
STARTCHAR ygrave
ENCODING 7923
SWIDTH 422 0
DWIDTH 7 0
BBX 7 10 0 0
BITMAP
0100
0200
0000
5494
2960
1640
0540
0500
0500
0500
ENDCHAR
STARTCHAR endash
ENCODING 8211
SWIDTH 507 0
DWIDTH 8 0
BBX 6 2 1 2
BITMAP
AAA0
AAA0
ENDCHAR
STARTCHAR emdash
ENCODING 8212
SWIDTH 552 0
DWIDTH 9 0
BBX 7 2 1 2
BITMAP
AAA8
AAA8
ENDCHAR
STARTCHAR quoteleft
ENCODING 8216
SWIDTH 146 0
DWIDTH 2 0
BBX 2 2 0 5
BITMAP
40
50
ENDCHAR
STARTCHAR quoteright
ENCODING 8217
SWIDTH 146 0
DWIDTH 2 0
BBX 2 2 0 5
BITMAP
50
10
ENDCHAR
STARTCHAR quotesinglbase
ENCODING 8218
SWIDTH 146 0
DWIDTH 2 0
BBX 2 2 0 -2
BITMAP
50
10
ENDCHAR
STARTCHAR quotedblleft
ENCODING 8220
SWIDTH 297 0
DWIDTH 5 0
BBX 5 2 0 5
BITMAP
4500
5540
ENDCHAR
STARTCHAR quotedblright
ENCODING 8221
SWIDTH 297 0
DWIDTH 5 0
BBX 5 2 0 5
BITMAP
5540
1140
ENDCHAR
STARTCHAR quotedblbase
ENCODING 8222
SWIDTH 297 0
DWIDTH 5 0
BBX 5 2 0 -2
BITMAP
5540
1140
ENDCHAR
STARTCHAR bullet
ENCODING 8226
SWIDTH 302 0
DWIDTH 5 0
BBX 3 4 1 1
BITMAP
64
48
48
64
ENDCHAR
STARTCHAR ellipsis
ENCODING 8230
SWIDTH 528 0
DWIDTH 8 0
BBX 8 2 0 0
BITMAP
0145
5545
ENDCHAR
STARTCHAR guilsinglleft
ENCODING 8249
SWIDTH 178 0
DWIDTH 3 0
BBX 1 3 1 2
BITMAP
80
40
80
ENDCHAR
STARTCHAR guilsinglright
ENCODING 8250
SWIDTH 178 0
DWIDTH 3 0
BBX 2 3 0 2
BITMAP
50
50
20
ENDCHAR
STARTCHAR fraction
ENCODING 8260
SWIDTH 362 0
DWIDTH 6 0
BBX 6 7 0 0
BITMAP
0150
0280
0540
0600
1500
1800
5400
ENDCHAR
STARTCHAR uni2074
ENCODING 8308
SWIDTH 204 0
DWIDTH 3 0
BBX 3 4 0 3
BITMAP
20
50
54
58
ENDCHAR
STARTCHAR Euro
ENCODING 8364
SWIDTH 462 0
DWIDTH 7 0
BBX 7 7 0 0
BITMAP
0560
2554
5500
0000
5500
2554
0560
ENDCHAR
STARTCHAR trademark
ENCODING 8482
SWIDTH 461 0
DWIDTH 7 0
BBX 7 3 0 3
BITMAP
B954
1154
1104
ENDCHAR
STARTCHAR minus
ENCODING 8722
SWIDTH 420 0
DWIDTH 7 0
BBX 6 2 0 2
BITMAP
7FF0
7FF0
ENDCHAR
STARTCHAR uni2215
ENCODING 8725
SWIDTH 278 0
DWIDTH 4 0
BBX 4 7 0 0
BITMAP
05
09
05
15
24
18
54
ENDCHAR
STARTCHAR .notdef
ENCODING -1
SWIDTH 500 0
DWIDTH 8 0
BBX 8 18 0 -4
BITMAP
7AAD
6009
6009
6009
6009
6009
6009
6009
6009
6009
6009
6009
6009
6009
6009
6009
6009
7AAD
ENDCHAR
STARTCHAR NULL
ENCODING -1
SWIDTH 600 0
DWIDTH 10 0
BBX 1 1 0 0
BITMAP
00
ENDCHAR
STARTCHAR acutecomb.case
ENCODING -1
SWIDTH 0 0
DWIDTH 0 0
BBX 4 4 1 15
BITMAP
11
28
54
A0
ENDCHAR
STARTCHAR ampersand.case
ENCODING -1
SWIDTH 797 0
DWIDTH 13 0
BBX 12 14 0 0
BITMAP
01A900
016980
055650
054550
094950
056680
069500
156810
595628
552556
550654
599560
16A654
0559A5
ENDCHAR
STARTCHAR asciicircum.case
ENCODING -1
SWIDTH 540 0
DWIDTH 9 0
BBX 8 7 0 7
BITMAP
0040
0240
0590
0954
1524
2815
5409
ENDCHAR
STARTCHAR asciitilde.case
ENCODING -1
SWIDTH 640 0
DWIDTH 10 0
BBX 9 4 1 5
BITMAP
405500
6A4140
AA5540
006900
ENDCHAR
STARTCHAR asterisk.case
ENCODING -1
SWIDTH 482 0
DWIDTH 8 0
BBX 6 6 1 8
BITMAP
0500
5550
5050
5040
1580
5540
ENDCHAR
STARTCHAR at.case
ENCODING -1
SWIDTH 915 0
DWIDTH 15 0
BBX 14 14 0 0
BITMAP
006AA400
025A9600
09800980
16159550
285594A0
146054A0
54505450
54505450
149054A0
2856A550
161A5A40
09801000
025A9400
00555000
ENDCHAR
STARTCHAR backslash.case
ENCODING -1
SWIDTH 504 0
DWIDTH 8 0
BBX 8 16 0 -1
BITMAP
5400
5500
5500
2A00
1540
1540
0A80
0540
0550
01A0
0250
0154
0068
0094
0055
001A
ENDCHAR
STARTCHAR bar.case
ENCODING -1
SWIDTH 262 0
DWIDTH 4 0
BBX 4 16 0 -1
BITMAP
15
55
55
55
55
55
55
55
55
55
55
55
55
55
55
55
ENDCHAR
STARTCHAR braceleft.case
ENCODING -1
SWIDTH 504 0
DWIDTH 8 0
BBX 6 16 1 -1
BITMAP
1560
1560
1560
1540
1540
1540
1540
9540
9540
9540
1540
1540
1540
1560
1560
1560
ENDCHAR
STARTCHAR braceright.case
ENCODING -1
SWIDTH 506 0
DWIDTH 8 0
BBX 6 16 1 -2
BITMAP
9540
9540
9540
1540
1540
1540
1560
1560
1560
1540
1540
1540
1540
9540
9540
9540
ENDCHAR
STARTCHAR bracketleft.case
ENCODING -1
SWIDTH 453 0
DWIDTH 7 0
BBX 7 16 0 -1
BITMAP
15A4
55A4
55A4
5500
5500
5500
5500
5500
5500
5500
5500
5500
5500
55A4
55A4
15A4
ENDCHAR
STARTCHAR bracketright.case
ENCODING -1
SWIDTH 453 0
DWIDTH 7 0
BBX 6 16 1 -2
BITMAP
A550
A550
A550
0150
0150
0150
0150
0150
0150
0150
0150
0150
0150
A550
A550
A550
ENDCHAR
STARTCHAR brokenbar.case
ENCODING -1
SWIDTH 262 0
DWIDTH 4 0
BBX 4 16 0 0
BITMAP
15
55
55
55
55
55
55
15
00
55
55
55
55
55
55
55
ENDCHAR
STARTCHAR bullet.case
ENCODING -1
SWIDTH 503 0
DWIDTH 8 0
BBX 8 7 0 3
BITMAP
0690
1694
1824
5415
1824
1694
0690
ENDCHAR
STARTCHAR uni0327.case
ENCODING -1
SWIDTH 0 0
DWIDTH 0 0
BBX 4 4 1 -4
BITMAP
10
68
05
64
ENDCHAR
STARTCHAR cent.case
ENCODING -1
SWIDTH 577 0
DWIDTH 9 0
BBX 8 16 1 -1
BITMAP
0140
0140
0140
06A4
26A5
5694
6800
5400
5400
6800
5694
2695
06A4
0140
0140
0140
ENDCHAR
STARTCHAR uni0302.case
ENCODING -1
SWIDTH 0 0
DWIDTH 0 0
BBX 7 4 1 15
BITMAP
0500
1540
5950
9094
ENDCHAR
STARTCHAR colon.case
ENCODING -1
SWIDTH 262 0
DWIDTH 4 0
BBX 4 9 0 0
BITMAP
55
55
15
00
00
00
15
55
55
ENDCHAR
STARTCHAR comma.case
ENCODING -1
SWIDTH 338 0
DWIDTH 5 0
BBX 4 5 1 -2
BITMAP
15
55
54
98
54
ENDCHAR
STARTCHAR copyright.case
ENCODING -1
SWIDTH 895 0
DWIDTH 14 0
BBX 14 14 0 0
BITMAP
006AA000
025A9900
09401940
251A4280
185A5150
54A040A0
505000A0
50500090
54A040A0
185A5150
25054280
09401940
025A9500
00555000
ENDCHAR
STARTCHAR currency.case
ENCODING -1
SWIDTH 676 0
DWIDTH 11 0
BBX 10 10 0 1
BITMAP
040040
150250
24A560
066640
054500
054500
126640
64A460
150250
040040
ENDCHAR
STARTCHAR degree.case
ENCODING -1
SWIDTH 413 0
DWIDTH 7 0
BBX 6 6 0 8
BITMAP
1A80
5660
5490
5490
2660
0A40
ENDCHAR
STARTCHAR uni0308.case
ENCODING -1
SWIDTH 0 0
DWIDTH 0 0
BBX 7 4 1 15
BITMAP
6464
4884
4884
6464
ENDCHAR
STARTCHAR divide.case
ENCODING -1
SWIDTH 618 0
DWIDTH 10 0
BBX 8 9 1 2
BITMAP
0180
0180
0000
AAAA
AAAA
AAAA
0180
0250
0180
ENDCHAR
STARTCHAR uni2215.case
ENCODING -1
SWIDTH 483 0
DWIDTH 8 0
BBX 7 14 0 0
BITMAP
0094
0068
0154
0150
01A0
0550
0550
0A40
0540
1540
2900
1600
5500
9400
ENDCHAR
STARTCHAR dollar.case
ENCODING -1
SWIDTH 660 0
DWIDTH 11 0
BBX 10 16 0 -1
BITMAP
005000
005000
095640
255650
555560
555140
555000
265900
055980
006560
005250
555290
595560
155580
055500
005000
ENDCHAR
STARTCHAR eight.case
ENCODING -1
SWIDTH 561 0
DWIDTH 9 0
BBX 9 14 0 0
BITMAP
06A400
26A500
595900
551540
551540
565540
266900
156600
555540
541540
551540
599900
26A500
055400
ENDCHAR
STARTCHAR ellipsis.case
ENCODING -1
SWIDTH 766 0
DWIDTH 12 0
BBX 12 3 0 0
BITMAP
151515
555515
555515
ENDCHAR
STARTCHAR emdash.case
ENCODING -1
SWIDTH 790 0
DWIDTH 13 0
BBX 11 3 1 5
BITMAP
AAAAA4
AAAAA4
AAAAA4
ENDCHAR
STARTCHAR endash.case
ENCODING -1
SWIDTH 721 0
DWIDTH 12 0
BBX 10 3 1 5
BITMAP
AAAA90
AAAA90
AAAA90
ENDCHAR
STARTCHAR equal.case
ENCODING -1
SWIDTH 618 0
DWIDTH 10 0
BBX 8 8 1 3
BITMAP
AAAA
AAAA
AAAA
0000
0000
AAAA
AAAA
AAAA
ENDCHAR
STARTCHAR Euro.case
ENCODING -1
SWIDTH 767 0
DWIDTH 12 0
BBX 12 14 0 0
BITMAP
006AA0
015A95
059A98
0A5010
054000
6AAA00
000000
6AAA00
555500
054000
0A5010
059A94
015A95
005550
ENDCHAR
STARTCHAR exclam.case
ENCODING -1
SWIDTH 262 0
DWIDTH 4 0
BBX 4 14 0 0
BITMAP
55
55
55
55
55
55
55
55
55
55
00
15
55
55
ENDCHAR
STARTCHAR exclamdown.case
ENCODING -1
SWIDTH 262 0
DWIDTH 4 0
BBX 4 14 0 -4
BITMAP
55
55
15
00
55
55
55
55
55
55
55
55
55
55
ENDCHAR
STARTCHAR five.case
ENCODING -1
SWIDTH 558 0
DWIDTH 9 0
BBX 9 14 0 0
BITMAP
155500
2AAA00
2AAA00
000000
150000
155000
150500
15A600
155940
001540
551540
599900
26A500
055400
ENDCHAR
STARTCHAR four.case
ENCODING -1
SWIDTH 585 0
DWIDTH 9 0
BBX 9 14 0 0
BITMAP
00A400
015400
029000
056000
095000
068000
154000
2A5500
055500
6A5540
6A5540
6A5540
005500
005500
ENDCHAR
STARTCHAR uni2074.case
ENCODING -1
SWIDTH 312 0
DWIDTH 5 0
BBX 5 6 0 8
BITMAP
1500
2400
1800
6540
0140
6540
ENDCHAR
STARTCHAR fraction.case
ENCODING -1
SWIDTH 655 0
DWIDTH 10 0
BBX 9 14 1 0
BITMAP
000540
000A00
001500
002800
005400
00A000
015000
028000
054000
0A0000
150000
280000
540000
A00000
ENDCHAR
STARTCHAR gravecomb.case
ENCODING -1
SWIDTH 0 0
DWIDTH 0 0
BBX 4 4 1 15
BITMAP
50
90
18
15
ENDCHAR
STARTCHAR greater.case
ENCODING -1
SWIDTH 677 0
DWIDTH 11 0
BBX 10 11 0 1
BITMAP
500000
550000
599000
159800
015540
006650
025500
155400
198000
590000
500000
ENDCHAR
STARTCHAR guillemotleft.case
ENCODING -1
SWIDTH 666 0
DWIDTH 11 0
BBX 9 9 1 2
BITMAP
010040
090240
550940
551540
641900
591940
991640
150540
050040
ENDCHAR
STARTCHAR guillemotright.case
ENCODING -1
SWIDTH 666 0
DWIDTH 11 0
BBX 9 9 1 2
BITMAP
401000
501800
981600
552540
150640
991640
551940
601900
401000
ENDCHAR
STARTCHAR guilsinglleft.case
ENCODING -1
SWIDTH 338 0
DWIDTH 5 0
BBX 4 9 1 2
BITMAP
01
09
55
55
64
59
99
15
05
ENDCHAR
STARTCHAR guilsinglright.case
ENCODING -1
SWIDTH 338 0
DWIDTH 5 0
BBX 4 9 1 2
BITMAP
40
50
98
55
15
99
55
60
40
ENDCHAR
STARTCHAR hyphen.case
ENCODING -1
SWIDTH 445 0
DWIDTH 7 0
BBX 5 3 1 5
BITMAP
AA80
AA80
AA80
ENDCHAR
STARTCHAR less.case
ENCODING -1
SWIDTH 677 0
DWIDTH 11 0
BBX 9 11 1 1
BITMAP
000040
000640
006640
015540
195800
559000
255400
066640
005640
000540
000080
ENDCHAR
STARTCHAR logicalnot.case
ENCODING -1
SWIDTH 618 0
DWIDTH 10 0
BBX 8 6 1 2
BITMAP
AAAA
AAAA
AAAA
0015
0015
0015
ENDCHAR
STARTCHAR uni00B5.case
ENCODING -1
SWIDTH 792 0
DWIDTH 13 0
BBX 12 18 0 -4
BITMAP
550054
550054
550054
550054
550054
550054
550054
550054
550054
550154
550294
556965
556956
559505
550000
550000
550000
150000
ENDCHAR
STARTCHAR minus.case
ENCODING -1
SWIDTH 618 0
DWIDTH 10 0
BBX 8 3 1 5
BITMAP
AAAA
AAAA
AAAA
ENDCHAR
STARTCHAR multiply.case
ENCODING -1
SWIDTH 580 0
DWIDTH 9 0
BBX 8 8 1 2
BITMAP
1024
6895
5658
1960
2590
9628
1854
1010
ENDCHAR
STARTCHAR nine.case
ENCODING -1
SWIDTH 558 0
DWIDTH 9 0
BBX 9 14 0 -1
BITMAP
055400
16A500
199900
551540
550540
555540
169540
140540
069540
000540
551540
595900
26A500
06A400
ENDCHAR
STARTCHAR numbersign.case
ENCODING -1
SWIDTH 776 0
DWIDTH 12 0
BBX 11 14 1 0
BITMAP
054150
054150
054000
555AA4
555AA4
556AA4
154540
150540
AA9550
AA9550
AA9550
151540
551500
551500
ENDCHAR
STARTCHAR one.case
ENCODING -1
SWIDTH 378 0
DWIDTH 6 0
BBX 6 14 0 0
BITMAP
6550
6550
6550
0550
0550
0550
0550
0550
0550
0550
0550
0550
0550
0550
ENDCHAR
STARTCHAR onehalf.case
ENCODING -1
SWIDTH 735 0
DWIDTH 12 0
BBX 10 14 1 0
BITMAP
940240
940540
140900
141500
142400
145400
009000
015690
024560
054160
090140
150690
280690
540000
ENDCHAR
STARTCHAR onequarter.case
ENCODING -1
SWIDTH 722 0
DWIDTH 12 0
BBX 10 14 1 0
BITMAP
940240
940540
140900
141500
142400
145400
009000
015280
024540
054A00
090950
150050
280950
540000
ENDCHAR
STARTCHAR uni00B9.case
ENCODING -1
SWIDTH 306 0
DWIDTH 5 0
BBX 3 6 1 8
BITMAP
94
94
14
14
14
14
ENDCHAR
STARTCHAR ordfeminine.case
ENCODING -1
SWIDTH 456 0
DWIDTH 7 0
BBX 6 6 1 8
BITMAP
1600
2A00
1940
5640
AA40
6A50
ENDCHAR
STARTCHAR ordmasculine.case
ENCODING -1
SWIDTH 489 0
DWIDTH 8 0
BBX 7 7 0 7
BITMAP
0A90
2554
1418
5414
1418
1554
0690
ENDCHAR
STARTCHAR paragraph.case
ENCODING -1
SWIDTH 893 0
DWIDTH 14 0
BBX 14 14 0 0
BITMAP
06AAAA90
26AAAA90
596AAA90
54015450
54015450
5AA95450
16A95450
14015450
06A95450
00015450
00015450
00015450
00015450
00015450
ENDCHAR
STARTCHAR parenleft.case
ENCODING -1
SWIDTH 290 0
DWIDTH 5 0
BBX 5 16 0 -1
BITMAP
0540
0680
1500
2A00
1500
5500
5500
5400
5400
5400
5500
1500
1500
2500
1540
0A80
ENDCHAR
STARTCHAR parenright.case
ENCODING -1
SWIDTH 290 0
DWIDTH 5 0
BBX 5 16 -1 -2
BITMAP
5900
2A00
1540
0540
0540
0540
0540
0540
0540
0540
0540
0640
1540
1500
2A00
1500
ENDCHAR
STARTCHAR percent.case
ENCODING -1
SWIDTH 827 0
DWIDTH 13 0
BBX 13 14 0 0
BITMAP
1A801540
56601A00
54909500
54915800
26629400
0A456000
00064000
00A50000
01586900
02916A40
05528180
06818140
25416940
56005500
ENDCHAR
STARTCHAR period.case
ENCODING -1
SWIDTH 262 0
DWIDTH 4 0
BBX 4 3 0 0
BITMAP
15
55
55
ENDCHAR
STARTCHAR periodcentered.case
ENCODING -1
SWIDTH 262 0
DWIDTH 4 0
BBX 4 3 0 5
BITMAP
15
55
55
ENDCHAR
STARTCHAR plus.case
ENCODING -1
SWIDTH 616 0
DWIDTH 10 0
BBX 8 9 1 2
BITMAP
0550
0550
0550
A55A
A55A
A55A
0550
0550
0540
ENDCHAR
STARTCHAR plusminus.case
ENCODING -1
SWIDTH 618 0
DWIDTH 10 0
BBX 8 12 1 0
BITMAP
0550
0550
0550
A55A
A55A
A55A
0550
0550
0540
AAAA
AAAA
AAAA
ENDCHAR
STARTCHAR question.case
ENCODING -1
SWIDTH 598 0
DWIDTH 10 0
BBX 8 14 1 0
BITMAP
1AA0
5698
A6A5
5819
0029
0055
0264
0594
0550
0540
0000
0540
0540
0540
ENDCHAR
STARTCHAR questiondown.case
ENCODING -1
SWIDTH 598 0
DWIDTH 10 0
BBX 9 14 0 -4
BITMAP
015000
015000
015000
000000
015000
029000
096000
155000
194000
550000
160640
29A940
15A600
06A800
ENDCHAR
STARTCHAR quotedbl.case
ENCODING -1
SWIDTH 464 0
DWIDTH 7 0
BBX 7 5 0 9
BITMAP
5454
5454
5454
5454
5454
ENDCHAR
STARTCHAR quotedblbase.case
ENCODING -1
SWIDTH 464 0
DWIDTH 7 0
BBX 7 5 0 -1
BITMAP
5454
5454
5454
1414
1414
ENDCHAR
STARTCHAR quotedblleft.case
ENCODING -1
SWIDTH 464 0
DWIDTH 7 0
BBX 7 5 0 8
BITMAP
5050
5050
5454
5454
5454
ENDCHAR
STARTCHAR quotedblright.case
ENCODING -1
SWIDTH 464 0
DWIDTH 7 0
BBX 7 5 0 9
BITMAP
5454
5454
5454
1414
1414
ENDCHAR
STARTCHAR quoteleft.case
ENCODING -1
SWIDTH 212 0
DWIDTH 3 0
BBX 3 5 0 8
BITMAP
50
50
54
54
54
ENDCHAR
STARTCHAR quoteright.case
ENCODING -1
SWIDTH 212 0
DWIDTH 3 0
BBX 3 5 0 9
BITMAP
54
54
54
14
14
ENDCHAR
STARTCHAR quotesinglbase.case
ENCODING -1
SWIDTH 212 0
DWIDTH 3 0
BBX 3 5 0 -1
BITMAP
54
54
54
14
14
ENDCHAR
STARTCHAR quotesingle.case
ENCODING -1
SWIDTH 212 0
DWIDTH 3 0
BBX 3 5 0 9
BITMAP
54
54
54
54
54
ENDCHAR
STARTCHAR registered.case
ENCODING -1
SWIDTH 895 0
DWIDTH 14 0
BBX 14 14 0 0
BITMAP
006AA000
025A9900
09401940
25595280
18596150
545450A0
505AA0A0
505A8090
545550A0
1854A150
25000280
09401940
025A9500
00555000
ENDCHAR
STARTCHAR uni030A.case
ENCODING -1
SWIDTH 0 0
DWIDTH 0 0
BBX 3 4 1 14
BITMAP
64
44
44
64
ENDCHAR
STARTCHAR section.case
ENCODING -1
SWIDTH 645 0
DWIDTH 10 0
BBX 10 17 0 -2
BITMAP
01A900
0A9A80
15A950
150100
156400
09A640
055680
255950
1A0550
1A1640
255540
095540
019640
000950
565A50
255580
055900
ENDCHAR
STARTCHAR semicolon.case
ENCODING -1
SWIDTH 338 0
DWIDTH 5 0
BBX 4 11 1 -2
BITMAP
15
15
15
00
00
00
15
55
54
98
54
ENDCHAR
STARTCHAR seven.case
ENCODING -1
SWIDTH 505 0
DWIDTH 8 0
BBX 8 14 0 0
BITMAP
6AA9
6AA9
6AA9
0054
0094
0058
0154
0154
0250
0160
0550
0550
0940
0580
ENDCHAR
STARTCHAR six.case
ENCODING -1
SWIDTH 558 0
DWIDTH 9 0
BBX 9 14 0 0
BITMAP
06A400
26A600
595900
551540
540000
55A400
540500
55A600
555940
541540
551540
599900
26A500
055400
ENDCHAR
STARTCHAR slash.case
ENCODING -1
SWIDTH 504 0
DWIDTH 8 0
BBX 8 16 0 -1
BITMAP
0015
0056
0055
00A4
0058
0154
0290
0160
0550
0A40
0580
1540
2900
1A00
5500
9400
ENDCHAR
STARTCHAR uni00AD.case
ENCODING -1
SWIDTH 445 0
DWIDTH 7 0
BBX 5 3 1 5
BITMAP
AA80
AA80
AA80
ENDCHAR
STARTCHAR sterling.case
ENCODING -1
SWIDTH 618 0
DWIDTH 10 0
BBX 10 14 0 0
BITMAP
069900
15A540
29A640
550550
550000
150000
6AA800
6AA800
6AA800
254000
000000
6AAA90
6AAA90
6AAA90
ENDCHAR
STARTCHAR three.case
ENCODING -1
SWIDTH 558 0
DWIDTH 9 0
BBX 9 14 0 0
BITMAP
06A400
26A600
595940
551540
001540
006500
000500
006600
005940
001540
551540
599900
26A500
055400
ENDCHAR
STARTCHAR threequarters.case
ENCODING -1
SWIDTH 722 0
DWIDTH 12 0
BBX 10 14 1 0
BITMAP
680240
650540
180900
151500
652400
855400
649000
015280
024540
054A00
090950
150050
280950
540000
ENDCHAR
STARTCHAR uni00B3.case
ENCODING -1
SWIDTH 332 0
DWIDTH 5 0
BBX 4 7 1 7
BITMAP
68
65
18
15
65
85
64
ENDCHAR
STARTCHAR tildecomb.case
ENCODING -1
SWIDTH 0 0
DWIDTH 0 0
BBX 6 3 1 15
BITMAP
6410
8520
4180
ENDCHAR
STARTCHAR trademark.case
ENCODING -1
SWIDTH 850 0
DWIDTH 14 0
BBX 13 7 0 6
BITMAP
6A960240
6A958A40
05066640
05059A40
05052140
05050140
05050140
ENDCHAR
STARTCHAR two.case
ENCODING -1
SWIDTH 558 0
DWIDTH 9 0
BBX 9 14 0 0
BITMAP
06A400
269500
595900
551540
001540
002540
005A00
016500
059400
0A6000
154000
2AAA00
2AAA00
2AAA00
ENDCHAR
STARTCHAR uni00B2.case
ENCODING -1
SWIDTH 339 0
DWIDTH 5 0
BBX 4 6 1 8
BITMAP
68
55
15
54
A9
A9
ENDCHAR
STARTCHAR underscore.case
ENCODING -1
SWIDTH 667 0
DWIDTH 11 0
BBX 9 3 1 0
BITMAP
AAAA40
AAAA40
AAAA40
ENDCHAR
STARTCHAR yen.case
ENCODING -1
SWIDTH 769 0
DWIDTH 12 0
BBX 12 14 0 0
BITMAP
55005A
290095
158158
0A5294
056560
025540
016840
009500
001500
065550
065550
065550
001500
001500
ENDCHAR
STARTCHAR zero.case
ENCODING -1
SWIDTH 558 0
DWIDTH 9 0
BBX 9 14 0 0
BITMAP
06A400
26A500
595900
551540
540540
540540
540540
540540
540540
540540
551540
599900
26A500
055400
ENDCHAR
ENDFONT
